{"title":"Edward Maya &amp; Vika Jigulina - Stereo Love [Music Video] 720p","uid":8900430,"size":50873546,"categoryP":"video","categoryS":"music_videos","magnet":"?xt=urn:btih:038f73836a84b61512f268a6c3f675b21485ba1a&amp;dn=Edward+Maya+%26amp%3B+Vika+Jigulina+-+Stereo+Love+%5BMusic+Video%5D+720p&amp;tr=udp%3A%2F%2Ftracker.openbittorrent.com%3A80&amp;tr=udp%3A%2F%2Fopen.demonii.com%3A1337&amp;tr=udp%3A%2F%2Ftracker.coppersurfer.tk%3A6969&amp;tr=udp%3A%2F%2Fexodus.desync.com%3A6969","seeders":0,"leechers":1,"uploader":"Sbyky","files":1,"time":1378797769,"description":"[IMG]http://yuq.me/users/18/139/DESWkCAJ1V.png[/IMG]\n\nGeneral\nComplete name                            : Edward Maya &amp; Vika Jigulina - Stereo Love [Music Video] 720p [Sbyky].mp4\nFormat                                   : MPEG-4\nFormat profile                           : Base Media / Version 2\nCodec ID                                 : mp42\nFile size                                : 48.5 MiB\nDuration                                 : 3mn 10s\nOverall bit rate mode                    : Variable\nOverall bit rate                         : 2 134 Kbps\nEncoded date                             : UTC 2010-01-14 20:35:18\nTagged date                              : UTC 2010-01-14 20:35:18\n\nVideo\nID                                       : 2\nFormat                                   : AVC\nFormat/Info                              : Advanced Video Codec\nFormat profile                           : &lt;a class=&quot;__cf_email__&quot; href=&quot;/cdn-cgi/l/email-protection&quot; data-cfemail=&quot;5b13323c331b1768756a&quot;&gt;[email&amp;#160;protected]&lt;/a&gt;&lt;script cf-hash='f9e31' type=&quot;text/javascript&quot;&gt;\n/* &lt;![CDATA[ */!function(){try{var t=&quot;currentScript&quot;in document?document.currentScript:function(){for(var t=document.getElementsByTagName(&quot;script&quot;),e=t.length;e--;)if(t[e].getAttribute(&quot;cf-hash&quot;))return t[e]}();if(t&amp;&amp;t.previousSibling){var e,r,n,i,c=t.previousSibling,a=c.getAttribute(&quot;data-cfemail&quot;);if(a){for(e=&quot;&quot;,r=parseInt(a.substr(0,2),16),n=2;a.length-n;n+=2)i=parseInt(a.substr(n,2),16)^r,e+=String.fromCharCode(i);e=document.createTextNode(e),c.parentNode.replaceChild(e,c)}}}catch(u){}}();/* ]]&gt; */&lt;/script&gt;\nFormat settings, CABAC                   : Yes\nFormat settings, ReFrames                : 3 frames\nFormat settings, GOP                     : M=1, N=30\nCodec ID                                 : avc1\nCodec ID/Info                            : Advanced Video Coding\nDuration                                 : 3mn 10s\nBit rate                                 : 2 005 Kbps\nMaximum bit rate                         : 3 324 Kbps\nWidth                                    : 1 280 pixels\nHeight                                   : 720 pixels\nDisplay aspect ratio                     : 16:9\nFrame rate mode                          : Constant\nFrame rate                               : 29.970 fps\nColor space                              : YUV\nChroma subsampling                       : 4:2:0\nBit depth                                : 8 bits\nScan type                                : Progressive\nBits/(Pixel*Frame)                       : 0.073\nStream size                              : 45.6 MiB (94%)\nTitle                                    : (C) 2007 Google Inc. v08.13.2007.\nEncoded date                             : UTC 2010-01-14 20:35:18\nTagged date                              : UTC 2010-01-14 20:35:18\n\nAudio\nID                                       : 1\nFormat                                   : AAC\nFormat/Info                              : Advanced Audio Codec\nFormat profile                           : LC\nCodec ID                                 : 40\nDuration                                 : 3mn 10s\nBit rate mode                            : Variable\nBit rate                                 : 126 Kbps\nMaximum bit rate                         : 252 Kbps\nChannel(s)                               : 2 channels\nChannel positions                        : Front: L R\nSampling rate                            : 44.1 KHz\nCompression mode                         : Lossy\nStream size                              : 2.88 MiB (6%)\nTitle                                    : (C) 2007 Google Inc. v08.13.2007.\nEncoded date                             : UTC 2010-01-14 20:35:18\nTagged date                              : UTC 2010-01-14 20:35:18\n\nShared By Sbyky\n[IMG]http://yuq.me/users/18/139/0aq32UMZvX.gif[/IMG]\n[IMG]http://yuq.me/users/18/139/bQg62viaEG.gif[/IMG]","torrent":{"xt":"urn:btih:038f73836a84b61512f268a6c3f675b21485ba1a","amp;dn":"Edward+Maya+%26amp%3B+Vika+Jigulina+-+Stereo+Love+%5BMusic+Video%5D+720p","amp;tr":["udp%3A%2F%2Ftracker.openbittorrent.com%3A80","udp%3A%2F%2Fopen.demonii.com%3A1337","udp%3A%2F%2Ftracker.coppersurfer.tk%3A6969","udp%3A%2F%2Fexodus.desync.com%3A6969"],"infoHash":"038f73836a84b61512f268a6c3f675b21485ba1a","infoHashBuffer":{"type":"Buffer","data":[3,143,115,131,106,132,182,21,18,242,104,166,195,246,117,178,20,133,186,26]},"announce":[],"urlList":[]}}